<mxfile host="app.diagrams.net" modified="2023-03-27T07:49:52.905Z" agent="Mozilla/5.0 (Windows NT 10.0; Win64; x64) AppleWebKit/537.36 (KHTML, like Gecko) Chrome/111.0.0.0 Safari/537.36 Edg/111.0.1661.54" etag="XumAr9SJ1O-eHO6cPzvI" version="21.1.1" type="github">
  <diagram name="Page-1" id="gmwSIWkT0gnkWxYAZQIG">
    <mxGraphModel dx="656" dy="379" grid="1" gridSize="10" guides="1" tooltips="1" connect="1" arrows="1" fold="1" page="1" pageScale="1" pageWidth="850" pageHeight="1100" math="0" shadow="0">
      <root>
        <mxCell id="0" />
        <mxCell id="1" parent="0" />
        <mxCell id="b2-c0hn-B1urzMc16en3-1" value="«IDiscount»&lt;br&gt;&lt;b&gt;+Discount:double&lt;br&gt;GetTaxForDiscount()&lt;br&gt;&lt;/b&gt;" style="html=1;whiteSpace=wrap;labelBackgroundColor=none;fillColor=#A8DADC;strokeColor=#457B9D;fontColor=#1D3557;" vertex="1" parent="1">
          <mxGeometry x="160" y="110" width="170" height="70" as="geometry" />
        </mxCell>
        <mxCell id="b2-c0hn-B1urzMc16en3-2" value="«IProduct»&lt;br&gt;&lt;b&gt;+ProductId:int&lt;br&gt;&lt;/b&gt;" style="html=1;whiteSpace=wrap;labelBackgroundColor=none;fillColor=#A8DADC;strokeColor=#457B9D;fontColor=#1D3557;" vertex="1" parent="1">
          <mxGeometry x="340" y="110" width="170" height="70" as="geometry" />
        </mxCell>
        <mxCell id="b2-c0hn-B1urzMc16en3-10" value="Product" style="swimlane;fontStyle=0;childLayout=stackLayout;horizontal=1;startSize=26;fillColor=none;horizontalStack=0;resizeParent=1;resizeParentMax=0;resizeLast=0;collapsible=1;marginBottom=0;whiteSpace=wrap;html=1;labelBackgroundColor=none;strokeColor=#457B9D;fontColor=#1D3557;" vertex="1" parent="1">
          <mxGeometry x="380" y="230" width="140" height="104" as="geometry" />
        </mxCell>
        <mxCell id="b2-c0hn-B1urzMc16en3-11" value="+ ProductId: int" style="text;strokeColor=none;fillColor=none;align=left;verticalAlign=top;spacingLeft=4;spacingRight=4;overflow=hidden;rotatable=0;points=[[0,0.5],[1,0.5]];portConstraint=eastwest;whiteSpace=wrap;html=1;labelBackgroundColor=none;fontColor=#1D3557;" vertex="1" parent="b2-c0hn-B1urzMc16en3-10">
          <mxGeometry y="26" width="140" height="26" as="geometry" />
        </mxCell>
        <mxCell id="b2-c0hn-B1urzMc16en3-12" value="+Name: string" style="text;strokeColor=none;fillColor=none;align=left;verticalAlign=top;spacingLeft=4;spacingRight=4;overflow=hidden;rotatable=0;points=[[0,0.5],[1,0.5]];portConstraint=eastwest;whiteSpace=wrap;html=1;labelBackgroundColor=none;fontColor=#1D3557;" vertex="1" parent="b2-c0hn-B1urzMc16en3-10">
          <mxGeometry y="52" width="140" height="26" as="geometry" />
        </mxCell>
        <mxCell id="b2-c0hn-B1urzMc16en3-13" value="+ Price: double" style="text;strokeColor=none;fillColor=none;align=left;verticalAlign=top;spacingLeft=4;spacingRight=4;overflow=hidden;rotatable=0;points=[[0,0.5],[1,0.5]];portConstraint=eastwest;whiteSpace=wrap;html=1;labelBackgroundColor=none;fontColor=#1D3557;" vertex="1" parent="b2-c0hn-B1urzMc16en3-10">
          <mxGeometry y="78" width="140" height="26" as="geometry" />
        </mxCell>
        <mxCell id="b2-c0hn-B1urzMc16en3-14" value="Use" style="endArrow=open;endSize=12;dashed=1;html=1;rounded=0;labelBackgroundColor=none;strokeColor=#457B9D;fontColor=default;exitX=0.5;exitY=0;exitDx=0;exitDy=0;entryX=0.648;entryY=1.041;entryDx=0;entryDy=0;entryPerimeter=0;" edge="1" parent="1" source="b2-c0hn-B1urzMc16en3-10" target="b2-c0hn-B1urzMc16en3-2">
          <mxGeometry width="160" relative="1" as="geometry">
            <mxPoint x="424" y="265" as="sourcePoint" />
            <mxPoint x="460" y="181" as="targetPoint" />
          </mxGeometry>
        </mxCell>
        <mxCell id="b2-c0hn-B1urzMc16en3-15" value="OldProduct" style="swimlane;fontStyle=0;childLayout=stackLayout;horizontal=1;startSize=26;fillColor=none;horizontalStack=0;resizeParent=1;resizeParentMax=0;resizeLast=0;collapsible=1;marginBottom=0;whiteSpace=wrap;html=1;labelBackgroundColor=none;strokeColor=#457B9D;fontColor=#1D3557;" vertex="1" parent="1">
          <mxGeometry x="160" y="230" width="210" height="104" as="geometry" />
        </mxCell>
        <mxCell id="b2-c0hn-B1urzMc16en3-16" value="+ &amp;nbsp;Discount: double" style="text;strokeColor=none;fillColor=none;align=left;verticalAlign=top;spacingLeft=4;spacingRight=4;overflow=hidden;rotatable=0;points=[[0,0.5],[1,0.5]];portConstraint=eastwest;whiteSpace=wrap;html=1;labelBackgroundColor=none;fontColor=#1D3557;" vertex="1" parent="b2-c0hn-B1urzMc16en3-15">
          <mxGeometry y="26" width="210" height="26" as="geometry" />
        </mxCell>
        <mxCell id="b2-c0hn-B1urzMc16en3-17" value="+GetTaxForDiscount()" style="text;strokeColor=none;fillColor=none;align=left;verticalAlign=top;spacingLeft=4;spacingRight=4;overflow=hidden;rotatable=0;points=[[0,0.5],[1,0.5]];portConstraint=eastwest;whiteSpace=wrap;html=1;labelBackgroundColor=none;fontColor=#1D3557;" vertex="1" parent="b2-c0hn-B1urzMc16en3-15">
          <mxGeometry y="52" width="210" height="26" as="geometry" />
        </mxCell>
        <mxCell id="b2-c0hn-B1urzMc16en3-18" value="+ Price: double" style="text;strokeColor=none;fillColor=none;align=left;verticalAlign=top;spacingLeft=4;spacingRight=4;overflow=hidden;rotatable=0;points=[[0,0.5],[1,0.5]];portConstraint=eastwest;whiteSpace=wrap;html=1;labelBackgroundColor=none;fontColor=#1D3557;" vertex="1" parent="b2-c0hn-B1urzMc16en3-15">
          <mxGeometry y="78" width="210" height="26" as="geometry" />
        </mxCell>
        <mxCell id="b2-c0hn-B1urzMc16en3-19" value="Use" style="endArrow=open;endSize=12;dashed=1;html=1;rounded=0;labelBackgroundColor=none;strokeColor=#457B9D;fontColor=default;exitX=0.391;exitY=0;exitDx=0;exitDy=0;entryX=0.822;entryY=1.027;entryDx=0;entryDy=0;entryPerimeter=0;exitPerimeter=0;" edge="1" parent="1">
          <mxGeometry width="160" relative="1" as="geometry">
            <mxPoint x="244.76" y="228" as="sourcePoint" />
            <mxPoint x="244.76" y="180" as="targetPoint" />
          </mxGeometry>
        </mxCell>
        <mxCell id="b2-c0hn-B1urzMc16en3-23" value="ProductItem" style="swimlane;fontStyle=0;childLayout=stackLayout;horizontal=1;startSize=26;fillColor=none;horizontalStack=0;resizeParent=1;resizeParentMax=0;resizeLast=0;collapsible=1;marginBottom=0;whiteSpace=wrap;html=1;labelBackgroundColor=none;strokeColor=#457B9D;fontColor=#1D3557;" vertex="1" parent="1">
          <mxGeometry x="570" y="110" width="140" height="78" as="geometry" />
        </mxCell>
        <mxCell id="b2-c0hn-B1urzMc16en3-24" value="- ProductId: product" style="text;strokeColor=none;fillColor=none;align=left;verticalAlign=top;spacingLeft=4;spacingRight=4;overflow=hidden;rotatable=0;points=[[0,0.5],[1,0.5]];portConstraint=eastwest;whiteSpace=wrap;html=1;labelBackgroundColor=none;fontColor=#1D3557;" vertex="1" parent="b2-c0hn-B1urzMc16en3-23">
          <mxGeometry y="26" width="140" height="26" as="geometry" />
        </mxCell>
        <mxCell id="b2-c0hn-B1urzMc16en3-26" value="-count: int" style="text;strokeColor=none;fillColor=none;align=left;verticalAlign=top;spacingLeft=4;spacingRight=4;overflow=hidden;rotatable=0;points=[[0,0.5],[1,0.5]];portConstraint=eastwest;whiteSpace=wrap;html=1;labelBackgroundColor=none;fontColor=#1D3557;" vertex="1" parent="b2-c0hn-B1urzMc16en3-23">
          <mxGeometry y="52" width="140" height="26" as="geometry" />
        </mxCell>
        <mxCell id="b2-c0hn-B1urzMc16en3-27" value="ProductItem" style="swimlane;fontStyle=0;childLayout=stackLayout;horizontal=1;startSize=26;fillColor=none;horizontalStack=0;resizeParent=1;resizeParentMax=0;resizeLast=0;collapsible=1;marginBottom=0;whiteSpace=wrap;html=1;labelBackgroundColor=none;strokeColor=#457B9D;fontColor=#1D3557;" vertex="1" parent="1">
          <mxGeometry x="570" y="200" width="140" height="78" as="geometry" />
        </mxCell>
        <mxCell id="b2-c0hn-B1urzMc16en3-28" value="- ProductId: product" style="text;strokeColor=none;fillColor=none;align=left;verticalAlign=top;spacingLeft=4;spacingRight=4;overflow=hidden;rotatable=0;points=[[0,0.5],[1,0.5]];portConstraint=eastwest;whiteSpace=wrap;html=1;labelBackgroundColor=none;fontColor=#1D3557;" vertex="1" parent="b2-c0hn-B1urzMc16en3-27">
          <mxGeometry y="26" width="140" height="26" as="geometry" />
        </mxCell>
        <mxCell id="b2-c0hn-B1urzMc16en3-29" value="-count: int" style="text;strokeColor=none;fillColor=none;align=left;verticalAlign=top;spacingLeft=4;spacingRight=4;overflow=hidden;rotatable=0;points=[[0,0.5],[1,0.5]];portConstraint=eastwest;whiteSpace=wrap;html=1;labelBackgroundColor=none;fontColor=#1D3557;" vertex="1" parent="b2-c0hn-B1urzMc16en3-27">
          <mxGeometry y="52" width="140" height="26" as="geometry" />
        </mxCell>
      </root>
    </mxGraphModel>
  </diagram>
</mxfile>
